# xmcd CD database file
#
# Track frame offsets:
#	151
#	21325
#	44213
#	59307
#	83572
#	104379
#	122703
#	142087
#	154749
#	173577
#	189854
#	206548
#	228504
#	242610
#	253665
#
# Disc length: 3583 seconds
#
# Revision: 1
# Processed by: cddbd v1.5.1PL2 Copyright (c) Steve Scherf et al.
# Submitted via: CDex 1.60beta1
#
DISCID=cb0dfd0f
DTITLE=Diana Panton - yesterday perhaps
DYEAR=2005
DGENRE=Jazz
TTITLE0=that old feeling
TTITLE1=Gingi
TTITLE2=plus je t'embrasse
TTITLE3=i'm a fool to want you
TTITLE4=isn't this a lovely day?
TTITLE5=summer me, winter me
TTITLE6=i didn't know what time it was
TTITLE7=les feuilles mortes
TTITLE8=this is always
TTITLE9=you hit the spot
TTITLE10=i get along without you
TTITLE11=for all we know
TTITLE12=stars fell on alabama
TTITLE13=you'd better go now
TTITLE14=in the wee small hours
EXTD=YEAR: 2005
EXTT0=
EXTT1=
EXTT2=
EXTT3=
EXTT4=
EXTT5=
EXTT6=
EXTT7=
EXTT8=
EXTT9=
EXTT10=
EXTT11=
EXTT12=
EXTT13=
EXTT14=
PLAYORDER=
